<svg width="177" height="34" viewBox="0 0 177 34" fill="none" xmlns="http://www.w3.org/2000/svg">
<path d="M158.892 0.183105C148.894 0.183105 140.783 7.56793 140.783 16.6693C140.783 25.7706 148.894 33.1554 158.892 33.1554C168.889 33.1554 177 25.7706 177 16.6693C177 7.56793 168.889 0.183105 158.892 0.183105ZM158.901 28.5529C151.158 28.5529 145.829 23.7806 145.829 16.7353C145.829 9.69001 151.158 4.91769 158.901 4.91769C166.644 4.91769 171.973 9.69001 171.973 16.7353C171.973 23.7806 166.644 28.5529 158.901 28.5529Z" fill="#FBF6EF"/>
<path d="M34.4059 0.183259C34.3965 0.400182 34.3682 0.617106 34.3682 0.83403C34.3682 11.3784 34.3682 21.9322 34.3682 32.4765C34.3682 33.1462 34.3682 33.1462 33.6986 33.1462C32.2838 33.1462 30.8691 33.1273 29.4544 33.1556C28.9923 33.165 28.8791 33.0141 28.8791 32.5614C28.8885 25.2049 28.8885 17.8484 28.8885 10.4918C28.8885 10.2938 28.8885 10.0957 28.8885 9.89765C28.8508 9.88822 28.8131 9.86936 28.7753 9.85993C28.6716 10.0203 28.549 10.1712 28.4547 10.3315C25.3046 15.566 22.1545 20.8004 19.0138 26.0443C18.7969 26.4121 18.5517 26.5725 18.1178 26.5536C17.3633 26.5159 16.6088 26.5253 15.8543 26.5536C15.5242 26.563 15.345 26.4404 15.1846 26.1575C12.1005 20.8287 9.00703 15.4999 5.91352 10.1806C5.79091 9.96367 5.64001 9.76561 5.49853 9.54869C5.45138 9.56755 5.40422 9.57698 5.35706 9.59585C5.34763 9.78448 5.32877 9.98253 5.32877 10.1712C5.32877 17.622 5.32877 25.0729 5.32877 32.5237C5.32877 33.1367 5.32877 33.1462 4.70629 33.1462C3.31044 33.1462 1.90515 33.1462 0.509298 33.1462C0.339532 33.1462 0.169766 33.1745 0 33.1839C0 22.1774 0 11.1803 0 0.173828C1.54676 0.173828 3.08408 0.173828 4.62141 0.173828C4.71572 0.353026 4.80061 0.541654 4.90435 0.71142C8.82784 6.91731 12.7513 13.1326 16.6748 19.3385C16.7785 19.4989 16.8823 19.6403 17.0521 19.8761C17.2407 19.6498 17.4199 19.48 17.5425 19.2819C20.5228 14.6134 23.5126 9.94481 26.4835 5.27624C27.5587 3.57858 28.6244 1.88092 29.6996 0.183259C31.2653 0.183259 32.8309 0.183259 34.4059 0.183259Z" fill="#FBF6EF"/>
<path d="M93.7297 0.183105C93.8145 0.239694 93.8994 0.334009 93.9937 0.334009C95.6254 0.343441 97.2193 0.579227 98.7189 1.23943C102.718 2.99368 105.161 6.01174 105.859 10.3313C106.868 16.6221 102.539 22.5073 96.295 23.6014C95.2859 23.7806 94.239 23.7994 93.2015 23.8089C90.5324 23.8372 87.8539 23.8183 85.1848 23.8183C84.9961 23.8183 84.8075 23.8183 84.534 23.8183C84.534 24.0258 84.534 24.205 84.534 24.3842C84.534 27.1193 84.5246 29.8544 84.5434 32.5896C84.5434 33.0517 84.402 33.1743 83.9587 33.1649C82.5251 33.1366 81.101 33.1554 79.6674 33.1554C79.0543 33.1554 79.0543 33.1554 79.0543 32.5235C79.0543 21.9603 79.0543 11.4065 79.0543 0.843307C79.0543 0.626384 79.026 0.409461 79.0166 0.192537C83.921 0.183106 88.8253 0.183105 93.7297 0.183105ZM84.3737 18.7725C84.5529 18.7819 84.6943 18.8008 84.8264 18.8008C88.0991 18.8008 91.3624 18.8008 94.6351 18.8008C94.7954 18.8008 94.9463 18.8008 95.1067 18.7819C98.983 18.2066 101.539 14.5472 100.737 10.718C100.002 7.2284 96.9081 5.36097 94.2295 5.40813C91.136 5.45528 88.0331 5.41756 84.9396 5.41756C84.7604 5.41756 84.5717 5.41756 84.3737 5.41756C84.3737 9.8975 84.3737 14.3114 84.3737 18.7725Z" fill="#FBF6EF"/>
<path d="M59.5874 0.183105C59.7006 0.484912 59.7949 0.805582 59.9364 1.09796C63.4449 8.83174 66.9628 16.5655 70.4713 24.2993C71.7257 27.0533 72.98 29.8167 74.225 32.5801C74.291 32.731 74.357 32.8914 74.4419 33.1083C67.1137 33.1083 59.842 33.1083 52.4949 33.1083C52.7024 32.7027 52.9005 32.3255 53.0891 31.9577C53.6267 30.9296 54.1549 29.8922 54.7208 28.8736C54.7962 28.7321 55.0509 28.6284 55.2301 28.6284C58.4179 28.6189 61.6151 28.6189 64.803 28.6189C65.3972 28.6189 65.9913 28.6189 66.7081 28.6189C63.4071 21.1586 60.1438 13.7927 56.8334 6.30411C56.6919 6.54933 56.5976 6.67194 56.541 6.82284C52.9476 15.1037 49.3731 23.3939 45.7703 31.6653C45.0064 33.429 45.4308 33.1272 43.5445 33.146C42.2712 33.1554 40.998 33.146 39.7248 33.146C39.5739 33.146 39.423 33.146 39.1777 33.146C39.5361 32.3538 39.8474 31.637 40.168 30.9296C44.6668 20.8851 49.1656 10.8406 53.655 0.79615C53.7399 0.598089 53.7776 0.390597 53.8436 0.183105C55.7488 0.183105 57.6728 0.183105 59.5874 0.183105Z" fill="#FBF6EF"/>
<path d="M140.227 0.183105C139.057 1.97508 137.888 3.75763 136.718 5.54017C134.294 9.209 131.87 12.8873 129.437 16.5467C129.211 16.8862 129.211 17.122 129.456 17.4521C133.106 22.4885 136.737 27.5437 140.378 32.5896C140.472 32.731 140.566 32.8725 140.708 33.0894C140.5 33.1177 140.368 33.146 140.246 33.146C138.567 33.146 136.879 33.1649 135.2 33.1366C134.983 33.1366 134.681 32.9763 134.549 32.7971C131.474 28.5812 128.409 24.3653 125.382 20.1212C124.985 19.5742 124.608 19.3478 123.929 19.3667C122.203 19.4138 120.468 19.3855 118.742 19.3855C118.553 19.3855 118.374 19.3855 118.119 19.3855C118.119 19.6308 118.119 19.8382 118.119 20.0363C118.119 24.2144 118.11 28.402 118.129 32.5801C118.129 33.0234 118.016 33.1743 117.553 33.1649C116.139 33.1366 114.724 33.1366 113.309 33.1649C112.847 33.1743 112.725 33.0328 112.725 32.5801C112.734 21.998 112.734 11.4254 112.734 0.843307C112.734 0.626384 112.706 0.409461 112.696 0.192537C114.517 0.192537 116.346 0.192537 118.167 0.192537C118.148 0.315146 118.129 0.437755 118.129 0.560363C118.129 5.08746 118.129 9.61455 118.129 14.1416C118.129 14.2737 118.157 14.4057 118.167 14.5661C118.402 14.5661 118.591 14.5661 118.77 14.5661C120.722 14.5661 122.665 14.5472 124.618 14.5755C125.051 14.5849 125.297 14.4246 125.523 14.0756C128.466 9.57683 131.418 5.08746 134.37 0.59809C134.455 0.46605 134.511 0.324577 134.577 0.183105C136.454 0.183105 138.34 0.183105 140.227 0.183105Z" fill="#FBF6EF"/>
</svg>
